<svg width="451" height="310" viewBox="0 0 451 310" fill="none" xmlns="http://www.w3.org/2000/svg">
<g clip-path="url(#clip0_468_11920)">
<path d="M446.862 0H163.323C162.243 0.00119893 161.207 0.430972 160.443 1.19502C159.679 1.95907 159.249 2.99499 159.248 4.07551V196.207C159.249 197.287 159.679 198.323 160.443 199.087C161.207 199.851 162.243 200.281 163.323 200.282H446.862C447.943 200.281 448.979 199.851 449.743 199.087C450.507 198.323 450.936 197.287 450.938 196.207V4.07551C450.936 2.99499 450.507 1.95907 449.743 1.19502C448.979 0.430972 447.943 0.00119893 446.862 0ZM449.773 196.207C449.773 196.979 449.466 197.719 448.92 198.265C448.374 198.811 447.634 199.117 446.862 199.118H163.323C162.551 199.117 161.811 198.811 161.265 198.265C160.719 197.719 160.412 196.979 160.412 196.207V4.07551C160.412 3.30354 160.719 2.56328 161.265 2.01741C161.811 1.47154 162.551 1.16474 163.323 1.16443H446.862C447.634 1.16474 448.374 1.47154 448.92 2.01741C449.466 2.56328 449.773 3.30354 449.773 4.07551V196.207Z" fill="white"/>
<path d="M450.355 16.3253H159.83V17.4897H450.355V16.3253Z" fill="white"/>
<path d="M169.727 12.2266C171.657 12.2266 173.221 10.6626 173.221 8.73328C173.221 6.80399 171.657 5.23999 169.727 5.23999C167.798 5.23999 166.234 6.80399 166.234 8.73328C166.234 10.6626 167.798 12.2266 169.727 12.2266Z" fill="#3F3D56"/>
<path d="M179.771 12.2266C181.7 12.2266 183.264 10.6626 183.264 8.73328C183.264 6.80399 181.7 5.23999 179.771 5.23999C177.841 5.23999 176.277 6.80399 176.277 8.73328C176.277 10.6626 177.841 12.2266 179.771 12.2266Z" fill="#3F3D56"/>
<path d="M189.814 12.2266C191.743 12.2266 193.307 10.6626 193.307 8.73328C193.307 6.80399 191.743 5.23999 189.814 5.23999C187.885 5.23999 186.321 6.80399 186.321 8.73328C186.321 10.6626 187.885 12.2266 189.814 12.2266Z" fill="#3F3D56"/>
<path d="M230.783 43.375H181.877C180.796 43.375 179.76 42.9456 178.995 42.1813C178.231 41.417 177.802 40.3804 177.802 39.2995C177.802 38.2186 178.231 37.182 178.995 36.4177C179.76 35.6534 180.796 35.224 181.877 35.224H230.783C231.864 35.224 232.901 35.6534 233.665 36.4177C234.429 37.182 234.859 38.2186 234.859 39.2995C234.859 40.3804 234.429 41.417 233.665 42.1813C232.901 42.9456 231.864 43.375 230.783 43.375Z" fill="white" fill-opacity="0.88"/>
<path d="M297.738 63.1704H181.877C180.796 63.1704 179.76 62.741 178.995 61.9767C178.231 61.2124 177.802 60.1758 177.802 59.0949C177.802 58.014 178.231 56.9774 178.995 56.2131C179.76 55.4488 180.796 55.0194 181.877 55.0194H297.738C298.819 55.0194 299.855 55.4488 300.62 56.2131C301.384 56.9774 301.813 58.014 301.813 59.0949C301.813 60.1758 301.384 61.2124 300.62 61.9767C299.855 62.741 298.819 63.1704 297.738 63.1704Z" fill="white" fill-opacity="0.88"/>
<path d="M335.128 71.0437C329.67 79.001 326.489 88.2977 325.928 97.9305C325.366 107.563 327.446 117.166 331.943 125.704C336.44 134.241 343.182 141.388 351.443 146.374C359.705 151.36 369.17 153.996 378.82 153.996V107.745L335.128 71.0437Z" fill="#6C63FF"/>
<path d="M378.819 48.0328C370.215 48.0274 361.738 50.1201 354.125 54.1298C346.512 58.1395 339.991 63.9452 335.128 71.0437L378.819 107.745V48.0328Z" fill="white" fill-opacity="0.88"/>
<path d="M378.82 154.578H378.237V47.4506H378.82C393.026 47.4506 406.65 53.0939 416.695 63.139C426.74 73.1842 432.383 86.8084 432.383 101.014C432.383 115.22 426.74 128.845 416.695 138.89C406.65 148.935 393.026 154.578 378.82 154.578ZM379.402 48.6181V153.411C393.197 153.257 406.376 147.67 416.077 137.86C425.778 128.05 431.219 114.811 431.219 101.014C431.219 87.2181 425.778 73.9784 416.077 64.1688C406.376 54.3593 393.197 48.7715 379.402 48.6181Z" fill="#3F3D56"/>
<path d="M215.646 176.411H205.748C205.053 176.411 204.387 176.134 203.896 175.643C203.405 175.152 203.129 174.486 203.128 173.791V145.263C203.129 144.568 203.405 143.902 203.896 143.411C204.387 142.92 205.053 142.644 205.748 142.643H215.646C216.34 142.644 217.006 142.92 217.497 143.411C217.989 143.902 218.265 144.568 218.266 145.263V173.791C218.265 174.486 217.988 175.152 217.497 175.643C217.006 176.134 216.34 176.411 215.646 176.411Z" fill="white"/>
<path d="M244.756 176.411H234.859C234.164 176.411 233.498 176.134 233.007 175.643C232.516 175.152 232.24 174.486 232.239 173.791V131.872C232.24 131.177 232.516 130.511 233.007 130.02C233.498 129.529 234.164 129.253 234.859 129.252H244.756C245.451 129.253 246.117 129.529 246.608 130.02C247.099 130.511 247.376 131.177 247.376 131.872V173.791C247.376 174.486 247.099 175.152 246.608 175.643C246.117 176.134 245.451 176.411 244.756 176.411Z" fill="#FF6584"/>
<path d="M273.867 176.411H263.97C263.275 176.411 262.609 176.134 262.118 175.643C261.627 175.152 261.35 174.486 261.35 173.791V120.228C261.35 119.533 261.627 118.867 262.118 118.376C262.609 117.885 263.275 117.608 263.97 117.608H273.867C274.562 117.608 275.228 117.885 275.719 118.376C276.21 118.867 276.486 119.533 276.487 120.228V173.791C276.486 174.486 276.21 175.152 275.719 175.643C275.228 176.134 274.562 176.411 273.867 176.411Z" fill="#FFC107"/>
<path d="M215.646 176.702H205.748C204.976 176.702 204.236 176.395 203.691 175.849C203.145 175.303 202.838 174.563 202.837 173.791V109.748C202.838 108.976 203.145 108.236 203.691 107.69C204.236 107.144 204.976 106.837 205.748 106.837H215.646C216.417 106.837 217.157 107.144 217.703 107.69C218.249 108.236 218.556 108.976 218.557 109.748V173.791C218.556 174.563 218.249 175.303 217.703 175.849C217.157 176.395 216.417 176.702 215.646 176.702ZM205.748 108.001C205.285 108.001 204.841 108.186 204.513 108.513C204.186 108.841 204.002 109.285 204.001 109.748V173.791C204.002 174.254 204.186 174.698 204.513 175.026C204.841 175.353 205.285 175.537 205.748 175.538H215.646C216.109 175.537 216.553 175.353 216.88 175.026C217.208 174.698 217.392 174.254 217.392 173.791V109.748C217.392 109.285 217.208 108.841 216.88 108.513C216.553 108.186 216.109 108.001 215.646 108.001H205.748Z" fill="#3F3D56"/>
<path d="M244.756 176.702H234.859C234.087 176.702 233.347 176.395 232.801 175.849C232.255 175.303 231.948 174.563 231.948 173.791V109.748C231.948 108.976 232.255 108.236 232.801 107.69C233.347 107.144 234.087 106.837 234.859 106.837H244.756C245.528 106.837 246.268 107.144 246.814 107.69C247.359 108.236 247.666 108.976 247.667 109.748V173.791C247.666 174.563 247.359 175.303 246.814 175.849C246.268 176.395 245.528 176.702 244.756 176.702ZM234.859 108.001C234.396 108.001 233.952 108.186 233.624 108.513C233.297 108.841 233.112 109.285 233.112 109.748V173.791C233.112 174.254 233.297 174.698 233.624 175.026C233.952 175.353 234.396 175.537 234.859 175.538H244.756C245.219 175.537 245.663 175.353 245.991 175.026C246.318 174.698 246.502 174.254 246.503 173.791V109.748C246.502 109.285 246.318 108.841 245.991 108.513C245.663 108.186 245.219 108.001 244.756 108.001H234.859Z" fill="#3F3D56"/>
<path d="M273.867 176.702H263.969C263.198 176.702 262.458 176.395 261.912 175.849C261.366 175.303 261.059 174.563 261.058 173.791V109.748C261.059 108.976 261.366 108.236 261.912 107.69C262.458 107.144 263.198 106.837 263.969 106.837H273.867C274.639 106.837 275.379 107.144 275.925 107.69C276.47 108.236 276.777 108.976 276.778 109.748V173.791C276.777 174.563 276.47 175.303 275.925 175.849C275.379 176.395 274.639 176.702 273.867 176.702ZM263.969 108.001C263.506 108.001 263.062 108.186 262.735 108.513C262.407 108.841 262.223 109.285 262.223 109.748V173.791C262.223 174.254 262.407 174.698 262.735 175.026C263.062 175.353 263.506 175.537 263.969 175.538H273.867C274.33 175.537 274.774 175.353 275.102 175.026C275.429 174.698 275.613 174.254 275.614 173.791V109.748C275.613 109.285 275.429 108.841 275.102 108.513C274.774 108.186 274.33 108.001 273.867 108.001H263.969Z" fill="#3F3D56"/>
<path d="M66.3968 209.017C66.623 208.191 66.6655 207.326 66.5212 206.483C66.377 205.639 66.0495 204.837 65.5619 204.134C65.0742 203.43 64.4383 202.843 63.6989 202.411C62.9594 201.98 62.1345 201.717 61.2821 201.639L56.2751 181.445L48.947 189.394L54.8252 207.352C54.7895 208.793 55.2835 210.196 56.2135 211.297C57.1436 212.398 58.4451 213.119 59.8715 213.324C61.2978 213.529 62.7499 213.204 63.9526 212.41C65.1552 211.617 66.0249 210.409 66.3967 209.017H66.3968Z" fill="#FFB8B8"/>
<path d="M52.9728 202.806C52.6331 202.664 52.3271 202.453 52.0746 202.185C51.8221 201.917 51.6287 201.599 51.5071 201.252L43.1488 175.531C40.9891 169.353 41.1471 162.6 43.5934 156.53L51.6503 136.528C51.8315 135.434 52.2265 134.386 52.8129 133.444C53.3993 132.503 54.1655 131.686 55.0677 131.041C55.9699 130.396 56.9904 129.935 58.0709 129.684C59.1514 129.434 60.2707 129.399 61.3647 129.581C62.4588 129.764 63.5062 130.16 64.447 130.747C65.3878 131.335 66.2037 132.102 66.8478 133.005C67.492 133.907 67.9519 134.929 68.2012 136.009C68.4505 137.09 68.4844 138.209 68.3008 139.303L57.1849 171.65L61.0758 197.988C61.1276 198.524 61.0135 199.063 60.749 199.532C60.4845 200.001 60.0824 200.378 59.597 200.611L55.1089 202.752C54.6275 202.982 54.0875 203.059 53.5611 202.974C53.359 202.941 53.1616 202.885 52.9728 202.806Z" fill="#2F2E41"/>
<path d="M94.2917 301.846L101.43 301.845L104.825 274.313L94.2905 274.314L94.2917 301.846Z" fill="#FFB8B8"/>
<path d="M115.196 308.473L92.7626 308.474L92.7622 299.806L106.528 299.806C108.827 299.806 111.031 300.719 112.657 302.344C114.282 303.969 115.196 306.174 115.196 308.473Z" fill="#2F2E41"/>
<path d="M58.7766 301.846L65.9145 301.845L69.31 274.313L58.7754 274.314L58.7766 301.846Z" fill="#FFB8B8"/>
<path d="M79.6807 308.473L57.2475 308.474L57.2471 299.806L71.0129 299.806C73.3116 299.805 75.5163 300.719 77.1418 302.344C78.7673 303.969 79.6806 306.174 79.6807 308.473Z" fill="#2F2E41"/>
<path d="M96.2428 189.634L102.517 239.347C103.38 246.182 103.983 253.041 104.328 259.926L106.018 293.734C106.034 294.05 105.985 294.365 105.876 294.661C105.766 294.957 105.597 295.227 105.38 295.456C105.162 295.685 104.9 295.867 104.61 295.991C104.32 296.115 104.008 296.18 103.692 296.18H94.1693C93.6122 296.18 93.0736 295.98 92.6512 295.617C92.2287 295.254 91.9504 294.751 91.8668 294.2L83.3024 237.776C83.2611 237.504 83.1248 237.255 82.9177 237.074C82.7106 236.893 82.446 236.791 82.1709 236.786C81.8958 236.781 81.6279 236.874 81.4148 237.048C81.2016 237.222 81.057 237.466 81.0065 237.737L70.6887 292.999C70.5867 293.495 70.3252 293.945 69.9442 294.28C69.5631 294.615 69.0832 294.816 68.5775 294.853L59.8128 295.409C59.4874 295.433 59.1606 295.388 58.8536 295.277C58.5466 295.167 58.2663 294.993 58.0308 294.767C57.7954 294.541 57.61 294.268 57.4866 293.966C57.3633 293.664 57.3049 293.339 57.3151 293.013L60.1454 202.443L96.2428 189.634Z" fill="#2F2E41"/>
<path d="M68.4431 118.825C76.3407 118.825 82.743 112.423 82.743 104.525C82.743 96.6277 76.3407 90.2255 68.4431 90.2255C60.5456 90.2255 54.1433 96.6277 54.1433 104.525C54.1433 112.423 60.5456 118.825 68.4431 118.825Z" fill="#FFB8B8"/>
<path d="M57.2343 203.607C60.7276 211.758 75.8652 217.581 79.3585 205.936C82.06 196.935 92.7611 193.151 97.4828 191.899C98.0765 191.741 98.584 191.355 98.8956 190.826C99.2073 190.296 99.298 189.665 99.1481 189.069L85.949 137.223C85.1803 134.203 83.6492 131.431 81.5023 129.172C79.3555 126.913 76.6647 125.243 73.6875 124.321C63.1963 121.072 52.1342 127.762 50.3583 138.597C49.8732 141.635 49.5642 144.699 49.4326 147.773C48.3379 170.648 54.9344 198.239 57.2343 203.607Z" fill="white"/>
<path d="M104.621 203.592C104.535 202.741 104.264 201.918 103.826 201.183C103.388 200.447 102.794 199.817 102.087 199.336C101.379 198.855 100.574 198.535 99.7289 198.398C98.8839 198.262 98.0193 198.312 97.196 198.546L85.2648 181.502L81.2839 191.554L93.2243 206.198C93.7089 207.556 94.6744 208.688 95.9379 209.381C97.2015 210.073 98.6753 210.279 100.08 209.957C101.485 209.636 102.723 208.811 103.56 207.638C104.397 206.465 104.774 205.025 104.621 203.592L104.621 203.592Z" fill="#FFB8B8"/>
<path d="M89.8616 202.622C89.4937 202.612 89.132 202.525 88.8001 202.366C88.4682 202.206 88.1735 201.979 87.9352 201.699L70.8898 180.701C66.6537 175.712 64.374 169.355 64.4746 162.811L64.8032 141.25C64.5795 140.164 64.572 139.044 64.7811 137.955C64.9902 136.866 65.4118 135.829 66.0219 134.903C66.6319 133.978 67.4184 133.181 68.3364 132.559C69.2544 131.937 70.2859 131.502 71.372 131.279C72.4581 131.056 73.5776 131.049 74.6663 131.259C75.7551 131.469 76.7919 131.891 77.7174 132.502C78.6429 133.112 79.4391 133.899 80.0604 134.818C80.6817 135.736 81.1159 136.768 81.3383 137.854L82.5927 172.034L95.6913 195.214C95.9322 195.695 96.0195 196.239 95.9413 196.772C95.8631 197.305 95.6231 197.8 95.2539 198.192L91.8356 201.804C91.4688 202.191 90.9927 202.457 90.4708 202.567C90.2706 202.609 90.0661 202.628 89.8616 202.622Z" fill="#2F2E41"/>
<path d="M57.5892 116.222C57.8971 116.404 58.243 116.513 58.6 116.541C58.9569 116.568 59.3154 116.513 59.6477 116.38C59.98 116.247 60.2771 116.039 60.5161 115.772C60.7551 115.505 60.9295 115.187 61.0259 114.843L61.0339 114.81C61.2934 113.725 61.0779 112.591 61.0034 111.478C60.9289 110.365 61.0379 109.141 61.7962 108.323C63.2098 106.797 65.7248 107.606 67.7688 107.22C68.9661 106.953 70.025 106.258 70.7473 105.267C71.4696 104.275 71.8058 103.054 71.693 101.833C71.6639 101.601 71.6183 101.37 71.5671 101.138C71.4392 100.551 71.4491 99.943 71.5959 99.3608C71.7427 98.7786 72.0225 98.2383 72.4133 97.7824C72.804 97.3265 73.2951 96.9674 73.848 96.7333C74.401 96.4991 75.0006 96.3963 75.5999 96.4329C77.6657 96.5511 79.8955 97.177 81.6047 95.6469C82.2312 95.0434 82.6663 94.2687 82.8554 93.4195C83.0445 92.5704 82.9794 91.6843 82.6681 90.8719C81.6922 88.055 78.9339 86.5803 76.2044 85.7696C72.8286 84.7942 69.2778 84.5833 65.8103 85.1523C62.3428 85.7213 59.0456 87.0558 56.1585 89.0589C54.4345 90.2741 52.8244 91.801 52.0896 93.7781C51.3548 95.7553 51.7093 98.2497 53.3662 99.5549C52.0819 100.915 51.1774 102.588 50.7435 104.408C50.3096 106.227 50.3615 108.129 50.894 109.922C51.7125 112.559 55.6184 115.088 57.5892 116.222Z" fill="#2F2E41"/>
<path d="M161.691 309.413H7.40399C7.24958 309.413 7.10149 309.352 6.9923 309.243C6.88312 309.133 6.82178 308.985 6.82178 308.831C6.82178 308.677 6.88312 308.529 6.9923 308.419C7.10149 308.31 7.24958 308.249 7.40399 308.249H161.691C161.846 308.249 161.994 308.31 162.103 308.419C162.212 308.529 162.273 308.677 162.273 308.831C162.273 308.985 162.212 309.133 162.103 309.243C161.994 309.352 161.846 309.413 161.691 309.413Z" fill="white"/>
</g>
<defs>
<clipPath id="clip0_468_11920">
<rect width="450" height="309.413" fill="white" transform="translate(0.9375)"/>
</clipPath>
</defs>
</svg>
