<svg width="820" height="1024" viewBox="0 0 820 1024" fill="none" xmlns="http://www.w3.org/2000/svg">
<rect x="94.8347" y="218.385" width="90" height="613.366" rx="45" transform="rotate(-120.92 94.8347 218.385)" fill="url(#paint0_linear_1043_4094)" fill-opacity="0.82"/>
<rect x="360.369" y="608.057" width="90" height="678.437" rx="45" transform="rotate(-122.825 360.369 608.057)" fill="url(#paint1_linear_1043_4094)" fill-opacity="0.82"/>
<rect x="469.251" y="1018.32" width="90" height="678.437" rx="45" transform="rotate(-122.825 469.251 1018.32)" fill="url(#paint2_linear_1043_4094)" fill-opacity="0.82"/>
<rect x="-71.8489" y="595.261" width="90" height="603.1" rx="45" transform="rotate(-119.687 -71.8489 595.261)" fill="url(#paint3_linear_1043_4094)" fill-opacity="0.3"/>
<rect x="-23.9312" y="1076.11" width="90" height="764.526" rx="45" transform="rotate(-123.154 -23.9312 1076.11)" fill="url(#paint4_linear_1043_4094)" fill-opacity="0.3"/>
<defs>
<linearGradient id="paint0_linear_1043_4094" x1="139.835" y1="218.385" x2="139.835" y2="831.751" gradientUnits="userSpaceOnUse">
<stop stop-color="#424FEE" stop-opacity="0.08"/>
<stop offset="0.0001" stop-color="#2C72FF" stop-opacity="0.08"/>
<stop offset="1" stop-color="#2C72FF"/>
<stop offset="1" stop-color="#2C72FF"/>
</linearGradient>
<linearGradient id="paint1_linear_1043_4094" x1="405.369" y1="608.057" x2="405.369" y2="1286.49" gradientUnits="userSpaceOnUse">
<stop stop-color="#424FEE" stop-opacity="0"/>
<stop offset="0.0001" stop-color="#2C72FF" stop-opacity="0.08"/>
<stop offset="1" stop-color="#2C72FF"/>
<stop offset="1" stop-color="#2C72FF"/>
</linearGradient>
<linearGradient id="paint2_linear_1043_4094" x1="514.251" y1="1018.32" x2="514.251" y2="1696.76" gradientUnits="userSpaceOnUse">
<stop stop-color="#424FEE" stop-opacity="0"/>
<stop offset="0.0001" stop-color="#2C72FF" stop-opacity="0.08"/>
<stop offset="1" stop-color="#2C72FF"/>
<stop offset="1" stop-color="#2C72FF"/>
</linearGradient>
<linearGradient id="paint3_linear_1043_4094" x1="-26.8489" y1="595.261" x2="-26.8489" y2="1198.36" gradientUnits="userSpaceOnUse">
<stop stop-color="#ABB2FC"/>
<stop offset="1" stop-color="#98A0FF" stop-opacity="0.06"/>
</linearGradient>
<linearGradient id="paint4_linear_1043_4094" x1="21.0688" y1="1076.11" x2="21.0688" y2="1840.64" gradientUnits="userSpaceOnUse">
<stop stop-color="#ABB2FC"/>
<stop offset="1" stop-color="#98A0FF" stop-opacity="0.06"/>
</linearGradient>
</defs>
</svg>
