<svg width="30" height="31" viewBox="0 0 30 31" fill="none" xmlns="http://www.w3.org/2000/svg">
<path d="M14.3046 28.3126C13.2328 27.4525 3.2799 17.7736 3.16865 17.6678C2.72907 17.2282 2.4523 16.7723 2.37632 16.3545C2.29763 15.9203 2.43059 15.5404 2.78334 15.1877C3.11167 14.8594 3.51326 14.6857 3.9447 14.6857C4.4711 14.6857 5.01108 14.9353 5.46151 15.3885L9.97398 19.7246C10.0527 19.8005 10.1558 19.8385 10.2562 19.8385C10.362 19.8385 10.4651 19.7978 10.5438 19.7191C10.7012 19.5618 10.7012 19.3067 10.5465 19.1493L3.34231 11.709C2.62053 10.9873 2.28135 9.88289 3.1388 9.02544C3.46713 8.69711 3.86872 8.52345 4.30016 8.52345C4.82657 8.52345 5.36654 8.77309 5.81697 9.22623L13.1867 16.4114C13.2654 16.4874 13.3685 16.5281 13.4716 16.5281C13.5747 16.5281 13.6806 16.4874 13.7592 16.4087C13.9166 16.2514 13.9193 15.9963 13.762 15.8362L4.91068 6.76242C4.50095 6.35269 4.25403 5.86156 4.21061 5.38399C4.16991 4.89828 4.34086 4.44785 4.70717 4.08154C5.0355 3.75321 5.43709 3.57955 5.86853 3.57955C6.39494 3.57955 6.93492 3.82919 7.38535 4.27962L16.413 13.082C16.4917 13.158 16.5948 13.1987 16.6979 13.1987C16.801 13.1987 16.9068 13.158 16.9855 13.0793C17.1429 12.922 17.1456 12.6669 16.9882 12.5068L10.4326 5.7693C10.0201 5.35686 9.77318 4.86844 9.73248 4.39087C9.69178 3.90516 9.86273 3.45473 10.229 3.08841C10.5574 2.76009 10.959 2.58643 11.3904 2.58643C11.9168 2.58643 12.4568 2.83606 12.9072 3.28921C15.3113 5.64991 21.5875 11.823 21.7992 12.0509C22.6051 12.6072 22.7679 11.766 22.8086 11.2206C22.8547 10.5857 22.1275 8.36879 22.5508 6.3744C23.2617 3.72336 25.3104 4.15751 25.3565 4.17922C26.4799 4.70563 26.2655 5.49253 25.8666 7.07447L25.8259 7.38652C25.4081 9.45416 28.2789 15.5811 28.4906 16.0397C29.6166 18.5035 30.9137 23.499 26.6183 27.7944C21.9104 32.5022 16.082 30.0899 14.3046 28.3126Z" fill="url(#paint0_radial_1027_4813)"/>
<path d="M20.3452 30.9547C17.458 30.9547 15.0024 29.5736 14.0337 28.6157C13.1627 27.9048 7.66521 22.5973 3.18802 18.2531C3.00621 18.0767 2.90039 17.9763 2.88954 17.9627C2.38212 17.4553 2.06736 16.9262 1.97782 16.4269C1.87471 15.8598 2.05108 15.347 2.49609 14.8992C2.9031 14.4922 3.40238 14.2779 3.94507 14.2779C4.58273 14.2779 5.2231 14.5709 5.74951 15.1L10.2565 19.4307L3.04963 11.9904C2.21931 11.1601 1.80144 9.78439 2.85155 8.73699C3.25857 8.32998 3.75784 8.11561 4.30053 8.11561C4.93819 8.11561 5.57856 8.40867 6.10497 8.93779L13.4693 16.1176L4.62072 7.04652C4.14858 6.57438 3.85824 5.99641 3.80668 5.42116C3.75513 4.80792 3.96678 4.24624 4.41992 3.79309C4.82694 3.38607 5.32621 3.17171 5.8689 3.17171C6.50385 3.17171 7.14422 3.46205 7.67335 3.99117L16.6983 12.7909L10.1426 6.05339C9.66773 5.57854 9.37739 5.00058 9.32855 4.42532C9.27699 3.8148 9.48864 3.25311 9.94179 2.79997C10.3488 2.39295 10.8481 2.17859 11.3908 2.17859C12.0284 2.17859 12.6688 2.47164 13.1952 3.00076L15.1516 4.91917C18.6384 8.33812 21.5526 11.2008 21.8647 11.521C22.0166 11.6431 22.2147 11.6892 22.2988 11.6485C22.3531 11.6214 22.4128 11.4966 22.4019 11.2334C22.3857 10.7721 22.3205 10.1995 22.2527 9.59444C22.117 8.37882 21.9759 7.11978 22.1523 6.28946C22.5376 4.84862 23.2947 4.2381 23.8591 3.97489C24.6351 3.61672 25.3867 3.74154 25.5306 3.80937C26.9415 4.47145 26.6621 5.57854 26.2768 7.11435L26.2686 7.15234L26.2252 7.46981C25.943 8.8591 27.392 12.6986 28.841 15.8272L28.8627 15.8707C29.8314 17.9871 31.5761 23.4168 26.909 28.0839C24.7626 30.2248 22.4399 30.9547 20.3452 30.9547ZM3.94507 15.0919C3.62488 15.0919 3.32097 15.2249 3.07134 15.4745C2.81356 15.7323 2.72402 15.9819 2.77829 16.2804C2.83798 16.6087 3.07948 16.9994 3.45665 17.3793C3.45936 17.382 3.5679 17.4879 3.75513 17.667C10.11 23.8346 13.9468 27.5005 14.5601 27.9943L14.5926 28.0242C16.0905 29.522 21.6557 32.1812 26.331 27.5059C30.6373 23.1997 29.0173 18.1717 28.1192 16.2071L28.1002 16.1664C27.1668 14.153 25.0448 9.26883 25.422 7.32057L25.4844 6.91356C25.9023 5.25293 25.9267 4.90561 25.2185 4.56371C25.0096 4.52572 23.5117 4.34392 22.9392 6.47941C22.7954 7.16048 22.9338 8.40595 23.0559 9.5049C23.1264 10.1263 23.1916 10.7151 23.2078 11.2062C23.235 11.9796 22.8687 12.2753 22.6462 12.3839C22.193 12.6037 21.653 12.4164 21.3166 12.1342L21.2813 12.1017C21.1158 11.9226 17.1786 8.06135 14.5736 5.50528L12.6145 3.58144C11.947 2.91122 11.0869 2.79997 10.5089 3.37793C10.2267 3.66013 10.0992 3.99117 10.129 4.35749C10.1616 4.74008 10.3678 5.13896 10.7124 5.48357L17.2817 12.2211C17.591 12.5358 17.591 13.0514 17.2762 13.3661C16.975 13.6673 16.4432 13.6728 16.1339 13.3743L7.10081 4.56914C6.4333 3.90163 5.57042 3.79038 4.99517 4.36834C4.71297 4.65054 4.58544 4.98158 4.61529 5.3479C4.65056 5.73049 4.85679 6.13208 5.19868 6.47127L14.0527 15.5505C14.3647 15.8652 14.362 16.3808 14.0472 16.6955C13.746 16.9967 13.2142 17.0022 12.9049 16.7037L5.53244 9.51575C4.86493 8.84282 4.00205 8.73428 3.4268 9.31225C2.72402 10.015 3.09847 10.886 3.63031 11.4206L10.8399 18.8663C11.1493 19.1811 11.1466 19.6939 10.8318 20.006C10.5279 20.3099 10.0015 20.3126 9.69215 20.0168L5.17969 15.6807C4.7998 15.2981 4.36294 15.0919 3.94507 15.0919Z" fill="#EDA600"/>
<path d="M21.151 11.788C19.6613 14.8297 19.8539 19.0871 22.0898 22.5034C22.3422 22.9647 22.7736 22.7394 22.5538 22.2646C19.8539 16.4877 22.6841 12.3252 22.6841 12.3252L21.151 11.788Z" fill="#EDA600"/>
<path d="M15.2925 0.380346C16.112 0.165983 16.9857 0.184977 17.835 0.383059C18.6789 0.586568 19.5228 1.01529 20.1496 1.71536C20.7629 2.41001 21.14 3.25389 21.2676 4.13847C21.3869 5.01492 21.2757 5.91849 20.8605 6.66741C20.8117 5.82624 20.6652 5.05291 20.4182 4.33927C20.2907 3.98381 20.1415 3.64462 19.9597 3.32444C19.7806 3.00696 19.5689 2.6922 19.3437 2.43443C18.8851 1.9053 18.2638 1.49286 17.5664 1.17267C16.8663 0.841632 16.1039 0.597421 15.2925 0.380346Z" fill="#B0BEC5"/>
<path d="M15.5176 2.95274C15.9708 2.66511 16.5379 2.60542 17.0724 2.70039C17.6124 2.79536 18.128 3.06399 18.535 3.43573C18.9393 3.8129 19.2269 4.28776 19.406 4.7816C19.4928 5.02853 19.5363 5.28902 19.577 5.54137C19.5905 5.80186 19.5905 6.06235 19.5498 6.32284C19.3626 6.12476 19.2161 5.92668 19.0777 5.73402C18.9176 5.55222 18.7928 5.35957 18.649 5.18319C18.3668 4.83316 18.0927 4.51569 17.7969 4.23349C17.493 3.95943 17.1728 3.71793 16.8011 3.509C16.4321 3.29463 16.0169 3.11555 15.5176 2.95274Z" fill="#90A4AE"/>
<path d="M0.00518621 20.1455C0.387783 20.8944 0.78666 21.5891 1.25066 22.2023C1.71195 22.8155 2.24107 23.3365 2.85702 23.6757C3.1555 23.8412 3.51096 23.985 3.85828 24.0936C4.20832 24.2048 4.57192 24.2808 4.94638 24.3324C5.69529 24.4246 6.48219 24.4083 7.31522 24.2808C6.66942 24.8425 5.80654 25.141 4.92738 25.2061C4.03737 25.2658 3.13379 25.0731 2.32519 24.6173C1.51115 24.1533 0.914192 23.4152 0.539736 22.631C0.16528 21.8414 -0.0355155 20.9921 0.00518621 20.1455Z" fill="#B0BEC5"/>
<path d="M2.5693 19.8276C2.8325 20.2835 3.093 20.6498 3.37791 20.97C3.66011 21.2902 3.96401 21.5534 4.29505 21.7922C4.63152 22.0228 5.00055 22.2263 5.40214 22.4298C5.60294 22.5329 5.8173 22.6143 6.02895 22.7337C6.24874 22.8287 6.47124 22.9291 6.7046 23.0729C6.45767 23.1652 6.20532 23.2194 5.94754 23.2602C5.69248 23.271 5.42928 23.2846 5.16878 23.2493C4.6478 23.1787 4.12682 22.9969 3.67096 22.6795C3.22324 22.3566 2.8515 21.9089 2.64799 21.4014C2.44177 20.8967 2.38207 20.3323 2.5693 19.8276Z" fill="#90A4AE"/>
<defs>
<radialGradient id="paint0_radial_1027_4813" cx="0" cy="0" r="1" gradientUnits="userSpaceOnUse" gradientTransform="translate(10.1032 9.47041) rotate(-45) scale(24.6944)">
<stop offset="0.3533" stop-color="#FFCA28"/>
<stop offset="0.8723" stop-color="#FFB300"/>
</radialGradient>
</defs>
</svg>
